<?xml version="1.0" encoding="UTF-8" standalone="no"?><!-- Generator: Gravit.io --><svg xmlns="http://www.w3.org/2000/svg" xmlns:xlink="http://www.w3.org/1999/xlink" style="isolation:isolate" viewBox="0 0 1000 1000" width="1000pt" height="1000pt"><defs><clipPath id="_clipPath_voH9BMneQizfwoJfkjRvZ1XsrjTqC59f"><rect width="1000" height="1000"/></clipPath></defs><g clip-path="url(#_clipPath_voH9BMneQizfwoJfkjRvZ1XsrjTqC59f)"><line x1="227" y1="315" x2="498" y2="523" id="Ścieżka" vector-effect="non-scaling-stroke" stroke-width="9" stroke="rgb(0,0,0)" stroke-linejoin="miter" stroke-linecap="square" stroke-miterlimit="3"/><line x1="735" y1="315" x2="498" y2="523" id="Ścieżka" vector-effect="non-scaling-stroke" stroke-width="9" stroke="rgb(0,0,0)" stroke-linejoin="miter" stroke-linecap="square" stroke-miterlimit="3"/><line x1="498" y1="531" x2="498" y2="841" id="Ścieżka" vector-effect="non-scaling-stroke" stroke-width="9" stroke="rgb(0,0,0)" stroke-linejoin="miter" stroke-linecap="square" stroke-miterlimit="3"/><g id="Grupa"><path d=" M 554.573 209.955 C 556.255 209.955 557.85 210.275 559.36 210.911 C 560.87 211.556 562.203 212.43 563.345 213.538 C 565.694 215.822 567.014 218.963 567 222.239 C 567 222.965 566.794 224.169 566.384 225.856 C 565.977 227.537 565.414 229.544 564.702 231.866 C 563.919 234.413 563.11 236.952 562.275 239.482 C 560.398 245.171 558.446 250.835 556.417 256.472 C 555.409 259.29 554.468 261.923 553.598 264.379 L 551.305 270.905 C 550.636 272.807 550.13 274.259 549.781 275.286 C 549.356 276.514 548.745 277.669 547.97 278.712 C 547.212 279.736 546.294 280.631 545.251 281.364 C 544.209 282.095 543.064 282.668 541.854 283.065 C 540.612 283.471 539.311 283.674 538.004 283.667 L 434.421 283.667 L 434.421 209.955 C 435.41 209.955 437.159 209.989 439.663 210.051 L 448.177 210.242 C 451.349 210.309 454.684 210.347 458.181 210.371 C 461.674 210.39 464.918 210.347 467.928 210.242 C 470.488 210.165 473.046 210.006 475.596 209.764 C 477.708 209.544 479.008 209.205 479.481 208.737 L 516.317 172.392 C 517.278 171.419 518.366 170.58 519.552 169.898 C 520.632 169.296 521.945 169 523.503 169 C 524.927 169 526.265 169.268 527.516 169.803 C 529.999 170.839 531.982 172.799 533.049 175.268 C 533.584 176.506 533.856 177.834 533.856 179.234 C 533.856 182.096 533.694 184.561 533.369 186.625 C 533.092 188.49 532.668 190.33 532.103 192.129 C 531.627 193.627 531.054 195.092 530.388 196.515 C 529.764 197.833 529.149 199.155 528.544 200.481 C 527.919 201.858 527.369 203.268 526.895 204.704 C 526.355 206.41 525.996 208.169 525.825 209.95 L 554.573 209.95 L 554.573 209.955 Z  M 442.701 275.478 L 467.565 275.478 L 467.565 218.144 L 442.701 218.144 L 442.701 275.478 Z  M 537.999 275.478 C 538.859 275.478 539.657 275.224 540.388 274.713 C 541.113 274.214 541.658 273.496 541.945 272.663 C 542.117 272.066 542.504 270.915 543.111 269.209 C 543.713 267.503 544.425 265.449 545.247 263.041 C 546.068 260.628 546.962 257.981 547.932 255.105 C 548.897 252.224 549.891 249.3 550.908 246.338 C 551.926 243.376 552.896 240.49 553.823 237.695 L 556.317 230.179 C 557.048 227.963 557.631 226.137 558.065 224.709 C 558.5 223.276 558.715 222.459 558.715 222.244 C 558.724 221.153 558.277 220.109 557.483 219.363 C 556.719 218.575 555.665 218.137 554.568 218.149 L 517.282 218.149 C 517.282 216.056 517.33 214.054 517.411 212.134 C 517.497 210.218 517.688 208.335 517.994 206.501 C 518.295 204.666 518.759 202.846 519.385 201.03 C 520.01 199.215 520.885 197.399 522.008 195.56 C 523.259 193.381 524.167 191.083 524.726 188.651 C 525.284 186.238 525.566 183.77 525.567 181.293 L 525.567 179.984 C 525.567 179.497 525.514 179.043 525.405 178.642 C 525.308 178.255 525.108 177.901 524.826 177.619 C 524.54 177.342 524.1 177.203 523.498 177.203 C 523.294 177.323 523.089 177.441 522.882 177.557 C 522.658 177.688 522.452 177.849 522.27 178.035 L 485.367 214.575 C 484.029 215.894 482.572 216.821 480.995 217.356 C 479.418 217.891 477.698 218.159 475.849 218.159 L 475.849 275.478 L 537.999 275.478 L 537.999 275.478 Z " fill-rule="evenodd" id="Złożona ścieżka" fill="rgb(0,150,136)"/><path d=" M 436.165 378.045 C 434.483 378.045 432.888 377.725 431.378 377.089 C 429.868 376.444 428.535 375.57 427.393 374.462 C 425.044 372.178 423.724 369.037 423.738 365.761 C 423.738 365.035 423.944 363.831 424.355 362.144 C 424.761 360.463 425.324 358.456 426.036 356.134 C 426.819 353.587 427.628 351.048 428.463 348.518 C 430.34 342.829 432.292 337.165 434.321 331.528 C 435.329 328.71 436.27 326.077 437.14 323.621 L 439.433 317.095 C 440.102 315.193 440.609 313.741 440.957 312.714 C 441.382 311.486 441.993 310.33 442.768 309.288 C 443.527 308.264 444.444 307.369 445.487 306.636 C 446.529 305.905 447.674 305.332 448.884 304.935 C 450.127 304.529 451.427 304.326 452.735 304.333 L 556.317 304.333 L 556.317 378.045 C 555.328 378.045 553.579 378.011 551.076 377.949 L 542.562 377.758 C 539.389 377.691 536.054 377.653 532.557 377.629 C 529.064 377.61 525.82 377.653 522.81 377.758 C 520.25 377.835 517.692 377.994 515.142 378.236 C 513.03 378.456 511.731 378.795 511.258 379.263 L 474.421 415.608 C 473.46 416.581 472.372 417.42 471.186 418.102 C 470.107 418.704 468.793 419 467.235 419 C 465.811 419 464.474 418.732 463.222 418.197 C 460.739 417.161 458.756 415.201 457.689 412.731 C 457.154 411.494 456.882 410.166 456.882 408.766 C 456.882 405.904 457.044 403.439 457.369 401.375 C 457.646 399.51 458.07 397.669 458.635 395.871 C 459.111 394.373 459.684 392.908 460.35 391.485 C 460.974 390.167 461.589 388.845 462.195 387.519 C 462.819 386.142 463.369 384.732 463.843 383.296 C 464.384 381.59 464.742 379.831 464.913 378.05 L 436.165 378.05 L 436.165 378.045 Z  M 548.037 312.522 L 523.173 312.522 L 523.173 369.856 L 548.037 369.856 L 548.037 312.522 Z  M 452.739 312.522 C 451.879 312.522 451.081 312.776 450.35 313.287 C 449.626 313.786 449.08 314.504 448.793 315.337 C 448.621 315.934 448.234 317.085 447.627 318.791 C 447.025 320.497 446.313 322.551 445.491 324.959 C 444.67 327.372 443.776 330.019 442.806 332.895 C 441.841 335.776 440.847 338.7 439.83 341.662 C 438.812 344.624 437.842 347.51 436.915 350.305 L 434.421 357.821 C 433.69 360.037 433.107 361.862 432.673 363.291 C 432.238 364.724 432.023 365.541 432.023 365.756 C 432.014 366.847 432.461 367.891 433.256 368.637 C 434.019 369.425 435.073 369.863 436.17 369.851 L 473.456 369.851 C 473.456 371.944 473.408 373.946 473.327 375.866 C 473.241 377.782 473.05 379.665 472.744 381.499 C 472.443 383.334 471.979 385.154 471.354 386.97 C 470.728 388.785 469.853 390.601 468.731 392.44 C 467.479 394.619 466.571 396.917 466.012 399.349 C 465.454 401.762 465.172 404.23 465.171 406.707 L 465.171 408.016 C 465.171 408.503 465.224 408.957 465.334 409.358 C 465.43 409.745 465.63 410.099 465.912 410.381 C 466.198 410.658 466.638 410.797 467.24 410.797 C 467.444 410.677 467.65 410.559 467.856 410.443 C 468.08 410.312 468.286 410.151 468.468 409.965 L 505.371 373.425 C 506.709 372.106 508.166 371.179 509.743 370.644 C 511.32 370.109 513.04 369.841 514.889 369.841 L 514.889 312.522 L 452.739 312.522 L 452.739 312.522 Z " fill-rule="evenodd" id="Złożona ścieżka" fill="rgb(255,0,0)"/><rect x="348.421" y="83" width="172" height="172" transform="matrix(1,0,0,1,0,0)" id="Prostokąt" fill="none"/></g><path d=" M 291.491 548.959 C 276.221 548.851 263.702 560.794 263.526 575.639 L 262.478 665.243 C 262.308 680.088 274.545 692.212 289.815 692.327 L 381.985 692.999 C 397.255 693.108 409.774 681.165 409.951 666.32 L 410.998 576.715 C 411.083 569.585 408.25 562.726 403.123 557.646 C 397.996 552.567 390.995 549.684 383.661 549.632 L 291.491 548.959 Z  M 291.362 559.987 L 383.532 560.66 C 392.536 560.732 399.75 567.879 399.654 576.632 L 398.607 666.237 C 398.498 674.99 391.118 682.031 382.114 681.971 L 289.944 681.298 C 280.94 681.226 273.726 674.079 273.822 665.326 L 274.87 575.721 C 274.978 566.969 282.358 559.928 291.362 559.987 L 291.362 559.987 Z  M 372.376 575.055 C 370.936 575.31 369.653 576.105 368.805 577.267 L 323.746 640.533 L 303.417 620.565 C 302.423 619.565 301.057 618.996 299.624 618.985 C 298.19 618.975 296.811 619.524 295.794 620.509 L 287.906 628.034 C 285.733 630.115 285.694 633.505 287.817 635.616 L 318.839 666.344 C 320.588 668.061 323.41 669.306 325.894 669.324 C 328.373 669.342 330.847 667.854 332.496 665.583 L 386.741 589.464 C 387.578 588.305 387.909 586.871 387.659 585.479 C 387.409 584.087 386.6 582.851 385.41 582.043 L 376.439 575.944 C 375.263 575.134 373.801 574.813 372.376 575.055 Z " id="Złożona ścieżka" fill="rgb(0,0,0)"/><path d=" M 602.84 625.44 L 583.76 598.56 L 583.76 598.56 Q 584.36 596.88 585.44 595.2 L 585.44 595.2 L 585.44 595.2 Q 586.52 593.52 588.14 592.14 L 588.14 592.14 L 588.14 592.14 Q 589.76 590.76 591.92 589.86 L 591.92 589.86 L 591.92 589.86 Q 594.08 588.96 596.72 588.96 L 596.72 588.96 L 596.72 588.96 Q 600.2 588.96 602.84 590.7 L 602.84 590.7 L 602.84 590.7 Q 605.48 592.44 608.24 596.64 L 608.24 596.64 L 617.6 610.92 L 631.4 590.52 L 631.4 590.52 Q 632.36 590.04 634.1 589.62 L 634.1 589.62 L 634.1 589.62 Q 635.84 589.2 637.52 589.2 L 637.52 589.2 L 637.52 589.2 Q 643.04 589.2 646.16 591.84 L 646.16 591.84 L 646.16 591.84 Q 649.28 594.48 649.28 598.32 L 649.28 598.32 L 649.28 598.32 Q 649.28 601.68 647.54 604.32 L 647.54 604.32 L 647.54 604.32 Q 645.8 606.96 642.8 610.68 L 642.8 610.68 L 630.44 625.8 L 650 653.76 L 650 653.76 Q 649.04 658.2 645.86 660.78 L 645.86 660.78 L 645.86 660.78 Q 642.68 663.36 637.28 663.36 L 637.28 663.36 L 637.28 663.36 Q 633.8 663.36 631.28 661.62 L 631.28 661.62 L 631.28 661.62 Q 628.76 659.88 626.12 655.68 L 626.12 655.68 L 616.4 640.32 L 601.28 663.12 L 601.28 663.12 Q 600.32 663.24 599.48 663.3 L 599.48 663.3 L 599.48 663.3 Q 598.64 663.36 597.8 663.36 L 597.8 663.36 L 597.8 663.36 Q 590.96 663.36 587.72 660.6 L 587.72 660.6 L 587.72 660.6 Q 584.48 657.84 584.48 653.76 L 584.48 653.76 L 584.48 653.76 Q 584.48 650.28 585.98 647.7 L 585.98 647.7 L 585.98 647.7 Q 587.48 645.12 590.24 641.64 L 590.24 641.64 L 602.84 625.44 L 602.84 625.44 Z  M 700.4 623.04 L 658.28 623.04 L 658.28 623.04 Q 657.44 621.72 656.9 619.56 L 656.9 619.56 L 656.9 619.56 Q 656.36 617.4 656.36 615.24 L 656.36 615.24 L 656.36 615.24 Q 656.36 610.92 658.28 608.94 L 658.28 608.94 L 658.28 608.94 Q 660.2 606.96 663.44 606.96 L 663.44 606.96 L 705.44 606.96 L 705.44 606.96 Q 706.04 608.4 706.7 610.5 L 706.7 610.5 L 706.7 610.5 Q 707.36 612.6 707.36 614.88 L 707.36 614.88 L 707.36 614.88 Q 707.36 619.08 705.44 621.06 L 705.44 621.06 L 705.44 621.06 Q 703.52 623.04 700.4 623.04 L 700.4 623.04 L 700.4 623.04 Z  M 700.4 646.92 L 658.28 646.92 L 658.28 646.92 Q 657.44 645.6 656.9 643.44 L 656.9 643.44 L 656.9 643.44 Q 656.36 641.28 656.36 639.12 L 656.36 639.12 L 656.36 639.12 Q 656.36 634.8 658.28 632.82 L 658.28 632.82 L 658.28 632.82 Q 660.2 630.84 663.44 630.84 L 663.44 630.84 L 705.44 630.84 L 705.44 630.84 Q 706.04 632.28 706.7 634.38 L 706.7 634.38 L 706.7 634.38 Q 707.36 636.48 707.36 638.76 L 707.36 638.76 L 707.36 638.76 Q 707.36 642.96 705.44 644.94 L 705.44 644.94 L 705.44 644.94 Q 703.52 646.92 700.4 646.92 L 700.4 646.92 L 700.4 646.92 Z  M 723.56 653.16 L 723.56 653.16 L 723.56 653.16 Q 723.56 648.24 726.62 645.06 L 726.62 645.06 L 726.62 645.06 Q 729.68 641.88 735.08 641.88 L 735.08 641.88 L 735.08 641.88 Q 740.48 641.88 743.54 645.06 L 743.54 645.06 L 743.54 645.06 Q 746.6 648.24 746.6 653.16 L 746.6 653.16 L 746.6 653.16 Q 746.6 658.08 743.54 661.26 L 743.54 661.26 L 743.54 661.26 Q 740.48 664.44 735.08 664.44 L 735.08 664.44 L 735.08 664.44 Q 729.68 664.44 726.62 661.26 L 726.62 661.26 L 726.62 661.26 Q 723.56 658.08 723.56 653.16 Z  M 739.64 635.04 L 727.52 637.44 L 727.52 637.44 Q 725.48 636.36 723.68 633.54 L 723.68 633.54 L 723.68 633.54 Q 721.88 630.72 721.88 626.88 L 721.88 626.88 L 721.88 626.88 Q 721.88 623.16 723.86 621.3 L 723.86 621.3 L 723.86 621.3 Q 725.84 619.44 729.68 618.48 L 729.68 618.48 L 739.04 616.2 L 739.04 616.2 Q 745.04 614.64 745.04 610.44 L 745.04 610.44 L 745.04 610.44 Q 745.04 608.16 742.82 606.48 L 742.82 606.48 L 742.82 606.48 Q 740.6 604.8 735.2 604.8 L 735.2 604.8 L 735.2 604.8 Q 730.28 604.8 725.96 606.06 L 725.96 606.06 L 725.96 606.06 Q 721.64 607.32 719 609 L 719 609 L 719 609 Q 716.96 607.44 715.52 605.22 L 715.52 605.22 L 715.52 605.22 Q 714.08 603 714.08 599.88 L 714.08 599.88 L 714.08 599.88 Q 714.08 596.76 715.88 594.42 L 715.88 594.42 L 715.88 594.42 Q 717.68 592.08 720.86 590.58 L 720.86 590.58 L 720.86 590.58 Q 724.04 589.08 728.42 588.36 L 728.42 588.36 L 728.42 588.36 Q 732.8 587.64 738.08 587.64 L 738.08 587.64 L 738.08 587.64 Q 752.24 587.64 759.5 593.94 L 759.5 593.94 L 759.5 593.94 Q 766.76 600.24 766.76 610.44 L 766.76 610.44 L 766.76 610.44 Q 766.76 629.64 739.64 635.04 L 739.64 635.04 L 739.64 635.04 Z " id="Złożona ścieżka" fill="rgb(0,0,255)"/></g></svg>